<svg xmlns="http://www.w3.org/2000/svg" viewBox="0 0 1800 1200" role="img" aria-labelledby="title desc">
  <title id="title">Eden Skye Studios Black Card commerce reference</title>
  <desc id="desc">Black marble and champagne-gold commerce collage with Black Card membership, luxury checkout, premium benefits, and creator business imagery.</desc>
  <defs>
    <linearGradient id="gold" x1="0" x2="1" y1="0" y2="1"><stop stop-color="#f5d9a3"/><stop offset=".42" stop-color="#9b7440"/><stop offset="1" stop-color="#fff0c8"/></linearGradient>
    <radialGradient id="night" cx=".5" cy=".4" r=".65"><stop stop-color="#3b2114"/><stop offset=".48" stop-color="#0d0a08"/><stop offset="1" stop-color="#050505"/></radialGradient>
    <pattern id="marble" width="160" height="160" patternUnits="userSpaceOnUse">
      <rect width="160" height="160" fill="#070707"/>
      <path d="M-20 118C42 64 90 96 180 18M-12 54C48 28 82 44 180-22" stroke="#5c5a56" stroke-opacity=".45" stroke-width="4" fill="none"/>
    </pattern>
    <filter id="shadow" x="-20%" y="-20%" width="140%" height="140%"><feDropShadow dx="0" dy="22" stdDeviation="18" flood-color="#000" flood-opacity=".6"/></filter>
  </defs>
  <rect width="1800" height="1200" fill="#050505"/>
  <g stroke="#9b7743" stroke-opacity=".65" fill="none"><path d="M0 365h1800M0 535h1800M540 0v535M1240 0v535M0 535v665M540 535v665M900 535v665M1300 535v665"/></g>
  <rect x="540" width="700" height="365" fill="url(#marble)"/>
  <text x="808" y="150" fill="url(#gold)" font-family="Georgia, serif" font-size="128">Es</text>
  <text x="704" y="240" fill="url(#gold)" font-family="Georgia, serif" font-size="64" letter-spacing="18">EDEN SKYE</text>
  <text x="812" y="302" fill="#c8c0b2" font-family="Arial" font-size="24" letter-spacing="18">STUDIOS</text>
  <text x="732" y="342" fill="#c8c0b2" font-family="Arial" font-size="18" letter-spacing="12">LUXURY - FREEDOM - IMPACT</text>
  <g transform="translate(0 0)">
    <rect width="540" height="365" fill="url(#night)"/>
    <circle cx="240" cy="138" r="74" fill="#b98958"/>
    <path d="M105 342c70-160 230-160 300 0z" fill="#b99568"/>
    <path d="M166 112c62-86 185-64 226 12-70-17-142-16-226-12z" fill="#080605"/>
    <rect x="330" y="165" width="120" height="78" rx="9" fill="#090909" stroke="#c6a269" transform="rotate(-8 390 204)"/>
    <text x="368" y="211" fill="url(#gold)" font-family="Georgia" font-size="26">ES</text>
  </g>
  <g transform="translate(1240 0)">
    <rect width="560" height="365" fill="#0b0b0b"/>
    <circle cx="250" cy="124" r="62" fill="#b98958"/>
    <path d="M110 330c65-145 220-145 285 0z" fill="#141414"/>
    <rect x="330" y="155" width="150" height="90" rx="8" fill="#c8c0b2"/>
    <rect x="345" y="170" width="120" height="60" rx="4" fill="#050505"/>
    <text x="80" y="305" fill="#f2efe7" font-family="Arial" font-size="24">Creator business cockpit</text>
  </g>

  <g transform="translate(0 365)">
    <rect width="540" height="170" fill="#080808"/>
    <rect x="145" y="54" width="245" height="95" rx="14" fill="#050505" stroke="#c6a269" filter="url(#shadow)"/>
    <text x="226" y="110" fill="url(#gold)" font-family="Georgia" font-size="38">ES</text>
    <text x="196" y="138" fill="url(#gold)" font-family="Arial" font-size="14" letter-spacing="4">BLACK CARD</text>
  </g>
  <g transform="translate(540 365)">
    <rect width="700" height="170" fill="#090909"/>
    <g fill="none" stroke="#9b7743" stroke-opacity=".45"><path d="M140 0v170M280 0v170M420 0v170M560 0v170"/></g>
    <g fill="url(#gold)" font-family="Georgia" font-size="30"><text x="51" y="58">ES</text><text x="192" y="58">PAY</text><text x="333" y="58">SEC</text><text x="472" y="58">VIP</text><text x="613" y="58">AI</text></g>
    <g fill="#f1d6a4" font-family="Arial" font-size="19" text-anchor="middle"><text x="70" y="95">PREMIUM</text><text x="210" y="95">PAYMENTS</text><text x="350" y="95">SECURE</text><text x="490" y="95">ACCESS</text><text x="630" y="95">FREEDOM</text></g>
  </g>
  <g transform="translate(1240 365)">
    <rect width="560" height="170" fill="url(#marble)"/>
    <text x="128" y="66" fill="url(#gold)" font-family="Georgia" font-size="44">LUXURY</text>
    <text x="92" y="118" fill="url(#gold)" font-family="Georgia" font-size="44">IS A STANDARD.</text>
  </g>

  <g transform="translate(0 535)">
    <rect width="540" height="665" fill="#070707"/>
    <rect x="32" y="58" width="470" height="300" fill="none" stroke="#9b7743"/>
    <text x="78" y="135" fill="url(#gold)" font-family="Georgia" font-size="42">WE DO NOT JUST</text>
    <text x="78" y="195" fill="url(#gold)" font-family="Georgia" font-size="42">CREATE CONTENT.</text>
    <text x="78" y="255" fill="url(#gold)" font-family="Georgia" font-size="42">WE CREATE LEGACIES.</text>
    <path d="M158 315c80-45 160-40 232 0" stroke="url(#gold)" stroke-width="3" fill="none"/>
  </g>
  <g transform="translate(540 535)">
    <rect width="360" height="665" fill="url(#night)"/>
    <circle cx="178" cy="180" r="72" fill="#b98958"/>
    <path d="M60 600c55-210 185-235 260 0z" fill="#171717"/>
    <rect x="238" y="220" width="92" height="60" rx="8" fill="#050505" stroke="#c6a269" transform="rotate(-8 284 250)"/>
    <text x="265" y="256" fill="url(#gold)" font-family="Georgia" font-size="22">ES</text>
  </g>
  <g transform="translate(900 535)">
    <rect width="400" height="665" fill="url(#marble)"/>
    <rect x="86" y="170" width="240" height="150" rx="13" fill="#050505" stroke="#c6a269" filter="url(#shadow)"/>
    <text x="175" y="245" fill="url(#gold)" font-family="Georgia" font-size="52">ES</text>
    <text x="126" y="290" fill="url(#gold)" font-family="Arial" font-size="18" letter-spacing="5">EDEN SKYE</text>
    <rect x="125" y="355" width="170" height="108" rx="11" fill="#050505" stroke="#c6a269"/>
    <text x="188" y="415" fill="url(#gold)" font-family="Georgia" font-size="34">ES</text>
  </g>
  <g transform="translate(1300 535)">
    <rect width="500" height="665" fill="#080808"/>
    <rect x="62" y="82" width="300" height="420" rx="40" fill="#111" stroke="#5a4a36" stroke-width="8"/>
    <rect x="94" y="122" width="236" height="120" rx="16" fill="#050505"/>
    <text x="145" y="195" fill="#f2efe7" font-family="Arial" font-size="28">APPROVED</text>
    <rect x="108" y="310" width="190" height="115" rx="10" fill="#050505" stroke="#c6a269" transform="rotate(7 203 368)"/>
    <text x="174" y="370" fill="url(#gold)" font-family="Georgia" font-size="38">ES</text>
    <text x="112" y="586" fill="url(#gold)" font-family="Georgia" font-size="32">MAKING POWER</text>
    <text x="112" y="632" fill="url(#gold)" font-family="Georgia" font-size="32">PURCHASES</text>
    <text x="112" y="678" fill="url(#gold)" font-family="Georgia" font-size="32">SEAMLESS.</text>
  </g>
</svg>
