<svg xmlns="http://www.w3.org/2000/svg" viewBox="0 0 1400 1400" role="img" aria-labelledby="title desc">
  <title id="title">Eden Skye Studios brand lock reference</title>
  <desc id="desc">Brand board with primary logo, monogram, color palette, typography, app icons, social banners, watermark overlays, and texture references.</desc>
  <defs>
    <linearGradient id="gold" x1="0" x2="1" y1="0" y2="1"><stop stop-color="#f2d8aa"/><stop offset=".52" stop-color="#a57c44"/><stop offset="1" stop-color="#f7ebc8"/></linearGradient>
    <linearGradient id="cream" x1="0" x2="1"><stop stop-color="#f2efe7"/><stop offset="1" stop-color="#c8c0b2"/></linearGradient>
    <pattern id="marble" width="140" height="140" patternUnits="userSpaceOnUse">
      <rect width="140" height="140" fill="#090909"/>
      <path d="M-20 92C40 62 72 84 160 22M-12 126C44 92 88 110 152 68" stroke="#5c5a56" stroke-opacity=".42" stroke-width="3" fill="none"/>
    </pattern>
    <pattern id="silk" width="120" height="120" patternUnits="userSpaceOnUse">
      <rect width="120" height="120" fill="#c8c0b2"/>
      <path d="M-20 40C25 20 62 32 140 5M-10 108C48 72 78 84 140 42" stroke="#fff7e8" stroke-opacity=".5" stroke-width="16" fill="none"/>
      <path d="M0 118C28 70 78 50 128 8" stroke="#7f725f" stroke-opacity=".3" stroke-width="10" fill="none"/>
    </pattern>
  </defs>
  <rect width="1400" height="1400" fill="#f2efe7"/>
  <g>
    <rect width="440" height="390" fill="#090909"/>
    <text x="70" y="150" fill="url(#cream)" font-family="Georgia, serif" font-size="84" letter-spacing="5">EDEN</text>
    <text x="70" y="245" fill="url(#cream)" font-family="Georgia, serif" font-size="84" letter-spacing="5">SKYE</text>
    <text x="76" y="292" fill="#c8c0b2" font-family="Arial" font-size="20" letter-spacing="12">VIRTUAL CREATOR</text>
    <text x="152" y="365" fill="#f2efe7" font-family="Arial" font-size="16">PRIMARY LOGO</text>
  </g>
  <g transform="translate(440)">
    <rect width="330" height="390" fill="#d7cebf"/>
    <circle cx="165" cy="155" r="92" fill="none" stroke="#111" stroke-width="3"/>
    <text x="104" y="180" fill="#111" font-family="Georgia, serif" font-size="96">Es</text>
    <text x="86" y="365" fill="#111" font-family="Arial" font-size="16">MONOGRAM LOGO</text>
  </g>
  <g transform="translate(770)">
    <rect width="370" height="200" fill="#111"/>
    <text x="50" y="96" fill="url(#cream)" font-family="Georgia, serif" font-size="58" letter-spacing="5">EDEN SKYE</text>
    <text x="106" y="134" fill="#c8c0b2" font-family="Arial" font-size="15" letter-spacing="9">VIRTUAL CREATOR</text>
    <rect y="200" width="370" height="190" fill="#eee7db"/>
    <text x="46" y="290" fill="#111" font-family="Georgia, serif" font-size="52" letter-spacing="4">EDEN SKYE</text>
    <text x="116" y="324" fill="#111" font-family="Arial" font-size="14" letter-spacing="8">VIRTUAL CREATOR</text>
  </g>
  <g transform="translate(1160 32)">
    <rect width="110" height="110" rx="22" fill="#111"/><text x="25" y="76" fill="url(#cream)" font-family="Georgia" font-size="66">Es</text>
    <rect y="160" width="110" height="110" rx="22" fill="#d7cebf"/><text x="25" y="236" fill="#111" font-family="Georgia" font-size="66">Es</text>
    <rect y="320" width="110" height="110" rx="55" fill="#111"/><text x="18" y="386" fill="url(#cream)" font-family="Georgia" font-size="40">EDEN</text>
  </g>

  <g transform="translate(34 420)">
    <rect width="130" height="62" fill="#050505"/><rect x="144" width="130" height="62" fill="#1e1e1e"/><rect x="288" width="130" height="62" fill="#8c8172"/><rect x="432" width="130" height="62" fill="#c8c0b2"/><rect x="576" width="130" height="62" fill="#f2efe7" stroke="#c8c0b2"/>
    <g fill="#111" font-family="Arial" font-size="18"><text x="30" y="92">#0D0D0D</text><text x="174" y="92">#1E1E1E</text><text x="318" y="92">#8C8172</text><text x="462" y="92">#C8C0B2</text><text x="606" y="92">#F2EFE7</text></g>
    <text x="292" y="128" fill="#111" font-family="Arial" font-size="18" letter-spacing="3">COLOR PALETTE</text>
  </g>
  <g transform="translate(34 610)">
    <rect width="700" height="210" fill="#f2efe7" stroke="#c8c0b2"/>
    <text x="75" y="70" fill="#111" font-family="Georgia" font-size="40">BELLEZA</text>
    <text x="40" y="125" fill="#111" font-family="Georgia" font-size="28" letter-spacing="8">ABCDEFGHIJKLM</text>
    <text x="40" y="162" fill="#111" font-family="Georgia" font-size="28" letter-spacing="8">NOPQRSTUVWXYZ</text>
    <path d="M350 30v150" stroke="#8c8172"/>
    <text x="470" y="70" fill="#111" font-family="Arial" font-size="30" letter-spacing="3">MONTSERRAT</text>
    <text x="430" y="126" fill="#111" font-family="Arial" font-size="24" letter-spacing="7">ABCDEFGHIJKLM</text>
    <text x="430" y="160" fill="#111" font-family="Arial" font-size="24" letter-spacing="7">1234567890</text>
  </g>
  <g transform="translate(34 860)">
    <circle cx="78" cy="78" r="70" fill="#111"/><text x="30" y="88" fill="url(#cream)" font-family="Georgia" font-size="34">EDEN</text>
    <circle cx="250" cy="78" r="70" fill="#8c8172"/><text x="210" y="95" fill="#fff" font-family="Georgia" font-size="62">Es</text>
    <circle cx="422" cy="78" r="70" fill="#20140f"/><circle cx="422" cy="65" r="35" fill="#b98958"/><path d="M350 148c38-82 108-82 146 0" fill="#0f0b08"/>
    <circle cx="594" cy="78" r="70" fill="#111"/><text x="550" y="100" fill="url(#cream)" font-family="Georgia" font-size="62">ES</text>
  </g>
  <g transform="translate(790 450)">
    <text x="170" y="-30" fill="#111" font-family="Arial" font-size="18" letter-spacing="3">SOCIAL MEDIA BANNERS</text>
    <rect width="540" height="150" fill="#150e0a"/><text x="48" y="72" fill="url(#gold)" font-family="Georgia" font-size="54">EDEN</text><text x="48" y="122" fill="url(#gold)" font-family="Georgia" font-size="54">SKYE</text><circle cx="430" cy="75" r="52" fill="#b98958"/>
    <rect y="190" width="540" height="150" fill="url(#marble)"/><text x="205" y="82" fill="url(#gold)" font-family="Georgia" font-size="56">EDEN</text><text x="205" y="132" fill="url(#gold)" font-family="Georgia" font-size="56">SKYE</text>
  </g>
  <g transform="translate(790 850)">
    <text x="170" y="-28" fill="#111" font-family="Arial" font-size="18" letter-spacing="3">WATERMARK / OVERLAY</text>
    <rect width="250" height="130" fill="#100b08"/><circle cx="125" cy="65" r="48" fill="none" stroke="#c8c0b2"/><text x="86" y="78" fill="#c8c0b2" font-family="Georgia" font-size="50">ES</text>
    <rect x="280" width="250" height="130" fill="#120d09"/><text x="342" y="58" fill="#c8c0b2" font-family="Georgia" font-size="42">EDEN</text><text x="342" y="96" fill="#c8c0b2" font-family="Georgia" font-size="42">SKYE</text>
  </g>
  <g transform="translate(790 1060)">
    <text x="160" y="-22" fill="#111" font-family="Arial" font-size="18" letter-spacing="3">PATTERNS / BACKGROUNDS</text>
    <rect width="125" height="190" fill="#050505"/><rect x="140" width="125" height="190" fill="url(#silk)"/><rect x="280" width="125" height="190" fill="url(#marble)"/><rect x="420" width="125" height="190" fill="#d7cebf"/>
  </g>
  <rect y="1280" width="1400" height="120" fill="#050505"/>
  <text x="175" y="1353" fill="url(#gold)" font-family="Georgia" font-size="48" letter-spacing="6">EDEN SKYE</text>
  <text x="565" y="1350" fill="#f2efe7" font-family="Arial" font-size="20" letter-spacing="3">@EDENSKYE</text>
  <text x="790" y="1350" fill="#f2efe7" font-family="Arial" font-size="20" letter-spacing="3">/EDENSKYE</text>
  <text x="1010" y="1350" fill="#f2efe7" font-family="Arial" font-size="20" letter-spacing="3">EDEN SKYE STUDIOS</text>
</svg>
